<svg xmlns="http://www.w3.org/2000/svg" width="88" height="128" fill="none" viewBox="0 0 88 128"><path fill="#fff" d="M52 10.38c1.104.443 2.671-.151 3.888-.084 3.043.008 5.838.595 8.622 1.67 1.744.767 3.118 2.046 4.532 3.248 1.126.847 2.215 1.96 3.472 2.686 1.132.628 2.526.439 3.478 1.39.837.857 1.152 2.136 2.206 2.787 1.392 1.023 6.022 3.946 3.897 5.9-.45.286-1.15.317-1.659.537-.785.313-1.2.877-1.934 1.406-1.203.844-2.494 1.54-3.674 2.409-2.14 1.532-4.112 3.37-6.537 4.606-1.09.553-2.258.758-3.338 1.336-1.067.568-1.969 1.614-2.996 2.019-.965.362-1.966.67-2.93 1.087-2.164.923-4.36 1.091-6.493 1.834-1.078.46-1.095 1.93.18 1.65 2.42-.837 4.858-1.663 7.444-1.427 1.348.245 2.781.46 4.039 1.023 1.373.767 2.755 1.582 4.109 2.5.595.41 1.145.956 1.813 1.226 1.516.527 3.054-1.203 4.552-1.692 3.426-1.593 7.365-.753 10.173 1.598 3.52 3.576 3.144 9.169 2.509 13.775-.628 2.885-1.822 5.634-2.474 8.533-.182.729-.397 1.462-.856 2.048-.289.386-.705.745-.787 1.233-.147.676.339 1.62.671 2.547.65 1.969 2.055 3.788 2.492 5.72.654 2.901 1.712 6.412-.307 8.979-.975 1.078-1.705 2.5-2.726 3.556-.975.9-2.16 1.313-3.15 2.21-.923.771-1.79 1.622-2.825 2.194-.688.462-1.648.772-2.32 1.086-.32.167-.524.344-.583.595-.022 1.101.667 2.36.793 3.501.848 3.821 1.176 7.655.545 11.575-.153 1.172-.217 2.306-.59 3.404-.719 1.839-2.026 3.471-3.19 5.015-.58.696-1.378 1.16-2.08 1.634-.637.396-1.11.92-1.796 1.289-1.431.634-3.997 1.237-5.608.938-2.84-.875-5.559-2.313-8.214-3.64-.847-.332-2.001.101-2.895-.295a24 24 0 0 0-5.484-2.756c-1.8-.683-3.641-1.013-5.393-1.644-1.262-.411-2.514-.96-3.788-1.31-1.56-.372-3.551-.057-4.13-1.961-1.515-3.354-2.306-6.953-3.389-10.469-.642-2.177-1.067-4.372-1.7-6.544-.414-1.428-.384-3.1-.608-4.48-.296-1.828-.966-3.723-1.376-5.566-.37-2.01-.483-4.127-1.047-6.09-.302-1.257-.196-2.581-.302-3.86-.362-2.423-.465-5.047-.224-7.515.239-2.75.774-5.56 1.244-8.264.29-1.7.09-3.346.296-5.1.663-4.435 1.425-8.93 2.137-13.37.167-.99.306-2.084-.587-2.756-.962-.73-2.051-1.344-3.126-1.861-.938-.49-1.623-1.168-2.469-1.804-1.27-.875-2.643-1.756-3.908-2.652-1.326-1.073-2.767-2.119-4.317-2.788-1.002-.505-1.954-.985-2.88-1.664-1.314-.834-2.111-2.145-3.419-2.85-1.767-.714-4.583.193-5.805-1.84-.5-.913-.406-2.042-.752-2.923-.45-1.027-.93-2.202.765-2.473 1.15-.236 2.34-.762 3.551-1.123 1.004-.297 1.874-.889 2.706-1.51 1.543-1.144 3.319-1.94 4.87-3.129 1.684-1.418 3.532-2.664 5.611-3.407 2.558-.91 5.495-1.738 8.303-1.895 1.852.044 3.728-.01 5.556.2 1.015-.005.84-1.135 1.205-2.112.41-1.33 1.299-2.48 1.918-3.692C36.682.5 40.181-.695 44.648.362c3.696.874 6.194 4.121 6.924 7.576.146.691-.173 2.03.393 2.418zM33.088 58.176c.445.151 1.004-.521 1.368-.81.96-.908 2.11-1.675 3.281-2.424a40 40 0 0 0 3.405-2.33c.647-.48 1.338-.836 1.733-1.517.254-.403.314-.88.393-1.343.174-.966.56-2.032.58-3.086.038-2.673.11-5.452.285-8.13.32-1.945.545-3.85.88-5.797.119-2.397.335-4.843.51-7.234-.604-4.232-.332-8.571-.824-12.725-.24-1.733-.173-1.787-.565-3.482-.154-.586-1.091-.853-1.586-.917-.758-.096-1.876.282-2.174.996-.625 1.378-.564 1.467-1 2.901-.373 1.186-.967 2.29-1.198 3.494-.198 1.26-.639 2.489-.74 3.763.032 1.372-.046 2.747-.545 4.052-.175.62-.314 1.259-.278 1.901.051 1.11.513 2.07.146 3.09-.763 2.006-.882 4.29-.693 6.39.078.954-.096 1.915-.22 2.866-.173 1.23.099 2.393 0 3.628-.468 2.795-1.053 5.539-1.581 8.367-.223 1.23-.064 2.421-.315 3.606-.234 1.065-.805 2.193-.966 3.302-.128.649-.133 1.258.08 1.422zm-18.5-34.08c.051.15.265.26.576.33.712.139 1.55.178 2.298.214 2.632.145 5.09-.156 7.659-.207.867-.003 1.762.049 2.634.064 1.017.012 2.25.08 2.752-.944.57-1.096.829-2.306.936-3.573.252-1.41.674-4.152-1.433-3.988-5.591.147-9.762 3.947-14.155 6.866-.414.313-1.256.68-1.275 1.208zm55.903.739c-.032-.135-.14-.276-.235-.386-.499-.481-1.093-.876-1.617-1.341-1.526-1.258-3.112-2.532-5.043-3.098-.88-.212-1.747-.704-2.6-.835-1.239-.092-3.009-1.083-4.254-1.08-1.499.068-1.945.007-3.482 0-1.27.223-.878 3.038-.93 3.866.104 3.5-1.408 4.03 2.958 3.813 2.897.058 5.817.564 8.693.417 1.959.191 4.235.67 6.01-.489.372-.253.572-.538.51-.824zM20.57 29.37c-.008.283.649.546.895.726 1.413.653 6.05 4.83 7.332 4.138.628-.37.567-1.716.699-2.484.083-.75.492-1.751.077-2.177-.43-.43-1.169-.297-1.74-.292-2.05.13-4.006.018-5.998-.015-.369 0-.977-.088-1.253.088zm42.012 1.446c-.243-.38-.98-.345-1.418-.415-2.08-.164-4.196-.22-6.283-.342a13 13 0 0 1-1.552-.187c-.5-.092-1.134-.213-1.28.413-.164 1.496.104 2.954-.027 4.43.014.496-.132 1.18.168 1.578.266.245.774-.006 1.134-.133 1.325-.529 2.581-1.065 3.766-1.816 1.398-.858 2.819-1.775 4.282-2.522.384-.239 1.196-.516 1.218-.978zm3.128 22.105c.393-.733-.64-1.768-1.34-2.306-1.894-1.416-4.35-.482-6.42.013-1.713.63-3.189 1.79-4.763 2.658-1.696.912-3.362 1.73-5.002 2.777-2.807 1.603-5.332 3.73-7.88 5.765-2.077 1.516-4.431 2.729-6.373 4.486-.63.508-1.355 1.026-1.626 1.768-.46 1.884-.788 4.193-.892 6.19.034 1.91.054 4.058.448 5.944.206 4.448 1.49 8.844 2.25 13.237.518 3.983 1.522 7.828 2.772 11.609.624 1.744.41 3.877 1.657 5.267.867.843 2.177.887 3.23 1.375 1.316.643 2.648 1.459 4.032 1.868 1.808.622 3.871.774 5.649 1.596 1.435.59 2.886.893 4.208 1.602 1.634.84 3.39 1.25 5.156 1.648 2.817 1.095 5.492-1.526 6.197-4.128 1.058-3.218 1.048-6.637.46-9.964-.341-1.669-1.144-3.293-1.494-4.984-.983-3.053-2.609-6.004-2.96-9.249-.17-.792-.75-1.274-1.461-1.561-1.774-.843-4.394-2.18-4.801-4.334-.137-2.22 3.055-2.815 4.61-3.296 1.64-.6 3.374-.73 5.03-1.25 1.416-.58 2.396-1.666 3.983-1.507 2.446 0 4.698 2.998 2.672 5.038-2.24 2.861-4.038 3.614-3.29 7.696.146 1.613.782 2.692 2.221 1.631 1.46-1.04 2.635-2.183 3.798-3.454.65-.7 1.425-1.286 2.063-1.98 1.898-1.839 1.681-4.986.785-7.296-.179-.65-.236-1.312-.407-1.962-.25-1.002-.879-1.942-1.364-2.847a23 23 0 0 1-1.252-2.821c-.252-.655-.558-1.446-1.211-1.737-.685-.3-1.455.094-2.105.36-1.334.533-2.615.884-3.892 1.46-1.389.547-2.883.75-4.311 1.222-1.34.4-2.418 1.27-3.637 1.928-2.643 1.47-5.418 2.412-8.333 1.587-1.105-.243-2.884-1.43-1.769-2.628.708-.665 1.74-.997 2.564-1.502 2.525-1.646 5.098-3.22 7.87-4.381 1.178-.605 2.198-1.5 3.42-1.993 2.061-.788 3.991-1.894 6.024-2.629 2.579-.783.943-2.956-.587-3.826-1.054-.539-2.26-.149-3.352.255-1.933.945-4.111 1.305-5.995 2.342-2.739 1.584-5.194 3.845-8.074 4.914-1.316.44-2.384 1.358-3.819 1.541-3.34.255-7.773-1.796-3.113-4.608.857-.52 2.019-.844 2.938-1.428 2.142-1.361 4.061-3.078 6.25-4.393 1.237-.888 2.476-1.523 3.81-2.177 1.576-.876 3.18-1.813 4.843-2.538.803-.416 1.97-.315 2.56-.963zm12.409 9.614c1.6-.857 1.74-6.197 2.036-7.99.046-.442.048-.887-.14-1.29-.487-.991-1.68-1.643-2.59-.773-.97.843-2.083 2.05-2.1 3.376.182 1.589 1.096 3.056 1.65 4.507.295.604.554 1.268.831 1.868.089.17.18.277.282.298z"/></svg>